<?xml version="1.0" encoding="UTF-8"?><svg id="_이어_1" xmlns="http://www.w3.org/2000/svg" viewBox="0 0 141.73 141.73"><defs><style>.cls-1,.cls-2,.cls-3,.cls-4,.cls-5,.cls-6,.cls-7,.cls-8{stroke-linecap:round;stroke-linejoin:round;}.cls-1,.cls-2,.cls-9,.cls-10,.cls-7{stroke:#e60012;}.cls-1,.cls-11,.cls-5,.cls-10{fill:#fff;}.cls-2,.cls-3,.cls-6,.cls-7{fill:none;}.cls-12,.cls-13,.cls-14,.cls-9,.cls-8{fill:#e60012;}.cls-12,.cls-3{stroke-width:5px;}.cls-12,.cls-3,.cls-14,.cls-6,.cls-8{stroke:#fff;}.cls-12,.cls-14,.cls-9,.cls-10{stroke-miterlimit:10;}.cls-15{fill:#7fcdec;}.cls-4{fill:#1d2b53;stroke:#1d2b53;}.cls-4,.cls-5{stroke-width:2px;}.cls-5{stroke:#c6171e;}.cls-14{stroke-width:.25px;}.cls-6{stroke-width:.5px;}.cls-10,.cls-8{stroke-width:.75px;}.cls-7{stroke-width:3px;}</style></defs><circle class="cls-13" cx="70.87" cy="70.87" r="70.87"/><ellipse class="cls-12" cx="70.29" cy="90.67" rx="46.8" ry="13.28"/><g><path class="cls-11" d="M25.06,36.13l-.26-.75c0-.63,.41-1.09,1.23-1.38,.57-.2,1.26-.31,2.07-.31,1.38,0,2.28,.09,2.71,.26,.38,.15,.64,.48,.77,1.01,.31,1.14,.52,1.85,.64,2.11,.18,.51,.36,1.03,.55,1.54,.31,.75,.6,1.12,.88,1.12,.4,0,.68-.64,.86-1.91,.1-.81,.21-1.62,.31-2.44,.22-.75,.67-1.24,1.36-1.47,.4-.13,1.1-.21,2.11-.22,2.29,0,3.43,.51,3.43,1.54,0,.26-.21,.63-.63,1.1s-.63,.98-.63,1.52c0,1.19,.16,2.74,.48,4.66,.31,1.54,.61,3.08,.9,4.62,.04,.28,.26,.58,.66,.89,.4,.32,.59,.63,.59,.96,0,.67-.57,1.12-1.69,1.32-.5,.1-1.31,.15-2.42,.15s-1.9-.05-2.4-.15c-1.1-.21-1.65-.64-1.65-1.3,0-.21,.07-.38,.21-.53,.14-.15,.27-.29,.41-.43,.13-.14,.25-.63,.35-1.49,.09-.75,.13-1.31,.13-1.69v-1.21c-.07-.51-.29-.77-.64-.77-.18,.01-.33,.27-.46,.77-.25,.85-.39,1.32-.42,1.41-.22,.51-.5,.77-.84,.77-.38,0-.68-.25-.9-.75-.07-.15-.21-.62-.42-1.41-.15-.5-.3-.75-.46-.75-.37,0-.56,.88-.59,2.65,.13,.5,.25,.82,.35,.96,.19,.21,.39,.42,.61,.66,.21,.23,.32,.47,.32,.7,0,.66-.07,1.16-.22,1.49-.12,.47-.56,.77-1.34,.92-.29,.06-.66,.09-1.11,.11s-1.12,.02-2.01,.02c-1.64,0-2.74-.17-3.28-.49-.54-.33-.81-.96-.81-1.9,0-.22,.14-.46,.42-.72,.34-.32,.53-.53,.57-.64,.28-.56,.59-1.9,.95-4.04,.32-2.02,.48-3.46,.48-4.33,0-1.02-.39-1.76-1.17-2.2Z"/><path class="cls-11" d="M57.75,44.35c0,1.85-.7,3.39-2.09,4.64-1.32,1.17-2.91,1.76-4.77,1.76-2.08,0-3.75-.82-5.02-2.46-1.13-1.49-1.69-3.32-1.69-5.47,0-2.37,.57-4.45,1.72-6.22,1.32-2.05,3.1-3.08,5.35-3.08s3.85,1.25,5.04,3.74c.98,2.04,1.47,4.4,1.47,7.1Zm-4.82-2.88c0-.96-.21-2.03-.64-3.2-.53-1.46-1.18-2.19-1.96-2.19-.46,0-.81,.34-1.06,1.01-.19,.51-.29,1.06-.29,1.64,0,.99,.16,1.92,.48,2.79,.44,1.16,1.08,1.73,1.94,1.73,1.01,0,1.52-.59,1.52-1.78Z"/><path class="cls-11" d="M60.3,39.17c0-1.48-.2-2.38-.59-2.71-.13-.07-.32-.18-.55-.33-.18-.18-.26-.42-.26-.75,0-.6,.38-1.05,1.14-1.34,.63-.25,1.41-.37,2.33-.35,.19,0,.59,.02,1.21,.07,2.86,.19,5.01,.89,6.45,2.09,1.72,1.45,2.57,3.72,2.57,6.8,0,2.33-.59,4.2-1.76,5.59-1.26,1.5-3.03,2.24-5.3,2.24-3.01,0-3.96,0-2.86,.02-1.45-.01-2.49-.12-3.1-.33-.56-.18-.9-.31-1.03-.4-.26-.16-.37-.41-.33-.75,.07-.69,.26-1.2,.57-1.54,.41-.44,.68-.84,.81-1.21,.48-1.39,.72-3.76,.7-7.11Zm5.17-3.15c-.07,.04-.17,.12-.29,.22-.16,.12-.28,.28-.36,.48-.08,.21-.15,.44-.21,.7,0,2.63,.01,4.24,.04,4.84,.03,1.22,.37,1.83,1.03,1.83,.76,0,1.33-.43,1.69-1.3,.28-.63,.42-1.39,.42-2.29,0-1.1-.14-2.02-.42-2.77-.4-1.1-1.03-1.67-1.91-1.72Z"/><path class="cls-11" d="M89.91,48.23c-.06,.85-.67,1.45-1.85,1.81-.76,.25-1.69,.38-2.79,.38s-1.89-.1-2.38-.29c-.81-.31-1.21-.91-1.21-1.8,0-.34,.05-.72,.15-1.14,.66-.66,.99-1.67,.99-3.04,0-.47-.32-.83-.97-1.08-.48-.19-1.01-.29-1.58-.29l-.62,.11c-.54,.32-.81,.94-.81,1.84,0,.66,.14,1.23,.42,1.71,.12,.18,.39,.49,.81,.94,.28,.31,.42,.59,.42,.86,0,1.01-.53,1.66-1.58,1.95-.51,.15-1.44,.22-2.79,.22-2.02,0-3.04-.51-3.04-1.52-.01-.89,.37-1.62,1.17-2.18,.92-.66,1.74-2.08,2.44-4.25,.6-1.89,.9-3.54,.9-4.95,0-.54-.1-1-.29-1.36-.1-.21-.27-.42-.51-.64-.19-.18-.29-.31-.29-.4,0-.48,.78-.9,2.35-1.25,1.33-.29,2.31-.41,2.93-.35,1.04,.1,1.83,.42,2.38,.95,.25,.25,.62,.82,1.1,1.72,.15,.29,.33,.87,.55,1.72,.85,3.39,1.71,5.95,2.57,7.67,.12,.25,.34,.5,.66,.76,.32,.26,.54,.47,.64,.63,.18,.31,.25,.73,.22,1.28Zm-7.79-8.45c0-.12-.13-.51-.4-1.17-.25-.6-.58-.9-.99-.9-.25,0-.51,.32-.79,.95-.23,.54-.35,.96-.35,1.25,0,.13,.19,.2,.57,.2,.09,0,.23-.01,.44-.03,.21-.02,.35-.03,.44-.03,.29,0,.48,.02,.55,.07,.35-.03,.53-.14,.53-.33Z"/><path class="cls-11" d="M96.87,41.43c.45,2.98,.84,4.69,1.14,5.13,.19,.21,.39,.43,.61,.66,.21,.24,.32,.47,.32,.7,0,1.2-.31,1.94-.92,2.22-.47,.22-1.72,.33-3.76,.33-1.77,0-2.93-.21-3.45-.62-.22-.01-.34-.16-.37-.44-.18-.32-.26-.77-.26-1.34,0-.22,.14-.46,.42-.73,.34-.32,.53-.54,.57-.64,.87-1.73,1.31-4.25,1.34-7.57-.01-1.48-.21-2.38-.59-2.68-.13-.07-.32-.18-.55-.33-.16-.18-.24-.42-.24-.75,0-.6,.38-1.05,1.14-1.34,.62-.25,1.39-.37,2.33-.35,1.29,.02,2.21,.17,2.75,.46,.44,.23,.66,.59,.66,1.08,0,.29-.07,.51-.21,.64-.14,.13-.28,.26-.42,.37-.14,.12-.25,.28-.34,.48-.13,.32-.23,.73-.29,1.23,.01,.53,.2,.79,.55,.79,1.2,0,1.8-.71,1.8-2.12,0-.22-.1-.46-.29-.71-.19-.25-.29-.49-.29-.71,0-.54,.33-.94,.99-1.17,.57-.21,1.51-.32,2.82-.35,.81-.01,1.34,.03,1.61,.13,.46,.19,.69,.63,.7,1.33,0,.47-.3,.79-.9,.95-.46,.07-.91,.15-1.36,.22-.44,.13-.87,.48-1.28,1.04-.59,.79-.87,1.77-.86,2.92,.01,1.19,.85,2.61,2.51,4.24,1.06,1.03,2.11,1.88,3.17,2.56,.23,.15,.73,.5,1.5,1.06,.1,.07,.19,.24,.27,.49,.08,.25,.12,.45,.12,.6,0,.53-.21,.89-.64,1.08-.28,.12-.73,.18-1.36,.18h-2.57c-.56,0-1.02-.12-1.39-.38-.47-.29-1.03-1.23-1.69-2.81-.53-1.36-1.06-2.71-1.61-4.07-.6-1.4-1.09-2.1-1.45-2.1-.07-.01-.13,0-.18,.07-.04,.06-.06,.14-.04,.24Z"/><path class="cls-11" d="M109.93,39.15c-.02-1.48-.21-2.38-.59-2.68-.13-.07-.32-.18-.55-.33-.18-.18-.26-.42-.26-.75,0-.6,.38-1.05,1.14-1.34,.63-.25,1.41-.37,2.33-.35,1.31,.02,2.22,.17,2.75,.46,.46,.23,.68,.59,.68,1.08,0,.29-.07,.51-.21,.64-.14,.13-.28,.26-.43,.37s-.26,.28-.33,.48c-.26,.65-.4,1.63-.4,2.95v.11c.13,1.26,.34,2.59,.62,3.98,.29,1.57,.55,2.5,.77,2.79,.19,.21,.39,.43,.61,.66,.21,.24,.32,.47,.32,.7,0,1.2-.31,1.94-.92,2.22-.47,.22-1.72,.33-3.76,.33-1.64,0-2.74-.17-3.28-.5s-.81-.96-.81-1.9c0-.22,.14-.46,.42-.73,.34-.32,.53-.54,.57-.64,.21-.41,.46-1.47,.75-3.19,.26-1.54,.46-3,.59-4.38Z"/></g><circle class="cls-9" cx="78.2" cy="12.7" r="2.16"/><path class="cls-10" d="M45.18,102.69c1.83-1.33,3.56-2.62,5.4-3.99,.61-.45,4.83-3.38,5.2-4.44,0,0-.22,.43-.22-1.43,0-1.96-1.81-1.83-1.59-3.31h-.01c-.63,.07-1.39,.73-2.2,1.22-.03,.02-.06,.04-.08,.05-.61,.36-1.21,.75-1.8,1.15-1.57,1.04-17.54,6.79-17.81,6.96"/><path class="cls-7" d="M117.09,90.67c0-7.33-20.95-13.28-46.8-13.28s-46.8,5.94-46.8,13.28"/><path class="cls-4" d="M93.15,102.13c-.64-.31-7.66-7.82-8.28-8.17-.82-.47-2.46,.18-3.27-.26-.27-.15-.54-.29-.81-.43-.15-.08-.3-.16-.44-.23-.09-.04-.18-.09-.27-.13-.13-.06-.26-.12-.38-.17-.1-.04-1.31-.22-1.46-.16-.83,1.36-.94,1.87-.42,3.56,.13,.44,2.55,6.65,3.89,7.41"/><path class="cls-10" d="M107.08,99.14c.05-.16-16.63-5.81-23.96-7.89-.68-.19-1.4-.26-2.06-.19-.62,.07-3.24,1.68-3.84,2.51,.15-.06,.32-.08,.49-.08,.21,0,.44,.06,.67,.13,.1,.03,.56,.22,.69,.28,.09,.04,.18,.09,.27,.13,.15,.07,.3,.15,.44,.23,.27,.14,.54,.28,.81,.43,.82,.45,1.64,.92,2.46,1.39,.62,.36,8.46,6.73,9.1,7.05"/><path class="cls-5" d="M69.18,95.77c.25,.85,.51,1.71,.76,2.56-.25-.85-.51-1.71-.76-2.56Z"/><path class="cls-1" d="M89.49,98.15c3.12-2.83,6.65-7.23,8.09-10.79,2.07-5.12,2.63-10.22,1.14-16.45-1.19-4.98-4.61-10.88-9.53-15.38-3.38-3.09-7.73-5.93-12.25-6.68,.78,1.56,1.37,4.17,.49,6.67-6.11-5.81-12.79-7.67-18.09-7.59-4.35,.07-9.79,1.72-9.79,1.72,0,0,1.95,1.98,1.98,6.05,.02,2.65-1.05,4.52-2.53,6.77-1.93,2.94-2.98,5.53-3.51,9.22-.6,4.16,.22,7.92,3.88,12.88-2.47,.2-4.01-.88-5.42-2.51-2.83,7.43-1.56,16.18,3.73,22.11,5.28,5.94,12.18,7.04,19.94,5.34,3.01-.66,8.55-2.92,10.53-3.99,4.97-2.68,7.98-4.7,11.32-7.37Z"/><path class="cls-14" d="M66.46,87.28c-.71-.48-.91-.77-1.7-1.15-.35,1.59,.45,3.35,1.87,4.14,.98,.54,1.95,.25,2.95-.27,1.15-.6,1.28-1.75,1.17-2.43s-.23-1.43-.55-2.04c-.55-1.04-1.18-1.81-1.96-2.7,.13,.97-.05,1.59-.16,2.39-.47-.9-1.57-1.81-2.32-2.46,.29,1.26,.63,2.09,.76,3.42,.03,.3,0,.56-.07,1.11Z"/><circle class="cls-14" cx="83.37" cy="83.35" r="5.57"/><circle class="cls-14" cx="57.28" cy="93.5" r="4.52"/><path class="cls-14" d="M60.22,84.01c-.69-1.32-2.31-1.83-3.63-1.15s-1.83,2.31-1.15,3.63c.07,.14,.16,.27,.26,.39,1.3-.42,2.83-.34,4.07,.22,.78-.81,1-2.05,.45-3.1Z"/><path class="cls-14" d="M73.45,74.14c-1.72,.89-2.39,3.01-1.49,4.73,.71,1.37,2.19,2.07,3.63,1.85,.36-1.62,1.45-3.19,2.9-4.22-.06-.29-.16-.58-.31-.86-.89-1.72-3.01-2.39-4.73-1.49Z"/><path class="cls-8" d="M80.73,106.31c-.63-.95-1.27-1.92-1.91-2.9-.49-.74-.98-1.49-1.47-2.23-1.13-1.72-2.25-3.41-3.33-4.97-1.46-2.13-2.51-4.59-3.89-6.73-.1-.15-.89-1.39-1.24-1.44-.51,1.2-1.31,3.4-1.33,4.31-.01,.53,2.77,7.59,3.65,9.62,1.32,3.05,3.14,7.98,3.29,8.26"/><path class="cls-8" d="M96.62,103.24c.1-1.17-14.91-9.71-20.89-14.75-.51-.43-1.03-.86-1.61-1.11-.55-.24-4.22,.17-5.17,.55,.21,.43,.46,.93,.75,1.42,1.31,2.18,2.86,4.55,4.32,6.67,1.08,1.57,4,6.78,4.49,7.52,.64,.98,1.77,2.41,2.21,3.05"/><path class="cls-8" d="M81.68,104.44c.96-2.74,2.64-8.39,2.46-9.47-.3-1.82-1.02-3.32-2.07-4.52h0c-.45,.41-.8,1.43-1.24,2.29-.78,1.51-6.21,12.7-7.05,14.41-.66,1.36-1.33,2.72-2,4.07-.34,.69-.69,1.37-1.05,2.04-.06,.12-.13,.24-.19,.36"/><path class="cls-8" d="M59.61,109.32s10.77-11.73,15.86-17.59c.52-.6,2.37-1.41,3.12-1.62,.54-.15,2.99-.55,3.47,.35-.34,.45-.62,1.17-1.06,2.03-.78,1.51-6.21,12.7-7.05,14.41-.66,1.36-1.33,2.72-2,4.07-.34,.69-1.17,2.29-1.24,2.41"/><g><path class="cls-11" d="M61.04,87.97c-1.64-1.67-4.95-1.82-6.77-.33"/><path class="cls-13" d="M61.3,87.71c-1.87-1.86-5.26-1.96-7.3-.33-.38,.3,.16,.83,.53,.53,1.71-1.37,4.68-1.22,6.24,.33,.34,.34,.87-.19,.53-.53h0Z"/></g><g><path class="cls-11" d="M80.02,75.66c-2.71,1.05-4.81,3.99-4.52,6.66"/><path class="cls-13" d="M79.92,75.3c-2.72,1.08-5.1,3.96-4.8,7.02,.05,.48,.8,.48,.75,0-.27-2.71,1.81-5.32,4.25-6.29,.44-.18,.25-.9-.2-.72h0Z"/></g><line class="cls-6" x1="80.8" y1="93.2" x2="83.48" y2="98.46"/><line class="cls-6" x1="79.42" y1="95.57" x2="82.04" y2="101.09"/><line class="cls-6" x1="78.23" y1="98.47" x2="79.84" y2="101.91"/><path class="cls-13" d="M117.09,118.73H23.49v-28.06c0,7.33,20.95,13.28,46.8,13.28s46.8-5.94,46.8-13.28v28.06Z"/><path class="cls-3" d="M23.49,90.67c0,7.33,20.95,13.28,46.8,13.28s46.8-5.94,46.8-13.28"/><path class="cls-7" d="M23.49,90.67c0,7.33,20.95,13.28,46.8,13.28s46.8-5.94,46.8-13.28"/><line class="cls-6" x1="70.31" y1="90.28" x2="68.65" y2="95.03"/><line class="cls-6" x1="71.48" y1="92.66" x2="69.75" y2="97.62"/><circle class="cls-13" cx="111.88" cy="28.28" r="3.36"/><circle class="cls-9" cx="102.15" cy="15.91" r=".98"/><g><path class="cls-15" d="M65.71,114.33c-.11-.11-.11-.19,.04-.26,.97-.48,1.7-1.33,2.52-1.66,.61-.25,1.22-.25,1.82,.48,.52,.64,.57,1.42,.39,2.22-.26,1.17-1.25,2.57-2.74,3.46-.26,.15-.55,.2-.8,.15-.1,.8-.17,1.74-.23,2.91,0,.14-.07,.16-.18,.11-.24-.12-.49-.44-.55-1.17-.09-1.23,.23-3.94,.68-6-.43,.1-.74-.02-.96-.23Zm3.9-1.14c-.5-.58-1.49,.5-2.21,1.03,.12,.33,.15,.8,.02,1.51-.11,.68-.25,1.36-.37,2.18,2.55-1.51,3.2-3.99,2.56-4.72Z"/><path class="cls-15" d="M73.15,114.24c.11-.15,.2-.21,.32-.14,.33,.17,.82,.6,.61,1.13-.32,.82-.64,1.81-.61,2.52,.04,.71,.36,1.13,.71,1.01,.48-.15,.79-1.12,.87-2.14,.01-.11,.08-.15,.17-.07,.11,.11,.23,.4,.21,.78-.02,.81-.54,1.58-1.2,1.79-.89,.28-1.54-.39-1.57-1.42-.02-.9,.37-2.03,.65-2.77-.41,.55-.89,.85-1.26,.98-.15,1.02-.7,3.19-.52,4.38,.02,.12-.04,.21-.19,.14-.49-.24-.69-.8-.59-1.54,.08-.64,.49-2.09,.7-2.9-.86-.2-.32-2.03,.12-2.2,.37-.15,.53,.59,.51,1.47,.37-.19,.72-.54,1.05-1.02Z"/><path class="cls-15" d="M81.98,114.75c-.18,1.02-.93,1.96-1.87,2.8-.09,1.89-.27,4.2-1.1,4.91-.2,.17-.44,.28-.78,.03-.4-.3-.8-.64-.84-1.43-.05-1.25,.74-2.42,1.81-3.3,.06-1.36,.17-2.86,.32-4.1-.27,.4-.61,.67-1.09,.81,.13,1.13-.17,2.66-.97,3.29-.4,.31-1.03,.53-1.74,.05-.79-.53-1-1.67-.79-2.82,.19-1.01,.63-1.99,1.35-2.29,.38-.17,.62-.16,.99,.1,.42,.29,.81,.22,1.08,1.13,.02,.06,.03,.16,.04,.22,.75-.27,1.18-1.36,1.47-2.53,.05-.2,.13-.3,.27-.21,.26,.14,.51,.64,.45,1.36-.07,.79-.35,2.8-.43,4.21,.91-1.01,1.32-2.01,1.55-2.96,.03-.11,.12-.15,.21-.05,.05,.08,.15,.37,.07,.78Zm-5.63-1.06c-.23,.4-.42,.94-.52,1.5-.19,1.11,.05,2.31,.45,2.45,.45,.17,1.03-.54,1.23-1.86,.07-.47,.09-.86,.06-1.23-.52-.06-1.04-.4-1.23-.87Zm.96-.35c-.19-.37-.43-.22-.35,.17,.04,.27,.28,.59,.59,.71-.04-.37-.13-.67-.24-.88Zm.99,8.62c.27,.17,.77-1.5,.87-3.58-1.26,1.48-1.19,3.38-.87,3.58Zm2.64-11c-.1,.25-.45,.3-.75,.07-.32-.24-.4-.66-.27-.93,.13-.25,.52-.27,.8,.03,.25,.27,.29,.6,.22,.83Z"/><path class="cls-15" d="M83.74,115.21c1.03-.32,1.57-1.62,1.8-2.62,.03-.12,.12-.16,.21-.06,.08,.08,.17,.44,.07,.83-.24,.93-.98,1.84-1.91,2.19-1.54,.59-2.64-.74-2.42-2.61,.22-1.86,1.24-2.95,1.97-2.82,.37,.07,.66,.17,.95,.37,.33,.21,.5,.99,.21,1.8-.33,.95-1.04,1.57-2.14,1.18,.02,1.27,.59,1.93,1.25,1.73Zm0-3.18c.2-.65,.24-1.39,.02-1.46-.33-.11-1.08,.99-1.23,2.36,0,.09-.02,.17-.02,.24,.74,.16,1.05-.55,1.23-1.14Z"/><path class="cls-15" d="M88.25,109.17c.44,.42,.19,1.24,.19,1.99,0,.16-.03,.22-.22,.19-.35-.04-.65-.34-.68-.96-.03-.49,.15-1.15-.07-1.22-.27-.09-.9,1.02-1.05,2.33-.17,1.63,.46,2.55,1.18,2.3,1.03-.36,1.55-1.66,1.77-2.61,.03-.12,.13-.17,.22-.07,.07,.08,.13,.41,.05,.81-.2,.89-.95,1.84-1.87,2.19-1.54,.59-2.62-.73-2.4-2.6,.22-1.82,1.22-2.93,1.96-2.79,.4,.08,.67,.2,.92,.43Z"/><path class="cls-15" d="M88.72,107.83c-.18-.13-.14-.24,.04-.29,.35-.11,.68-.26,1-.42,.13-.81,.27-1.51,.38-1.85,.05-.2,.18-.23,.29-.11,.26,.29,.41,.7,.34,1.44,.47-.19,.74-.03,.89,.09,.14,.12,.12,.22-.06,.29-.28,.06-.65,.24-.94,.4-.18,.99-.44,2.43-.54,3.62-.08,1.04,.33,1.75,.85,1.59,.56-.18,.94-1.3,1.06-2.38,.02-.17,.15-.25,.26-.09,.13,.17,.15,.42,.13,.74-.03,.41-.45,1.78-1.44,2.1-.82,.27-1.79-.4-1.72-2.02,.03-.71,.17-1.92,.35-3.07-.42,.15-.76,.07-.91-.03Z"/><path class="cls-15" d="M95.29,111.35c0,.14-.08,.17-.2,.1-.24-.12-.52-.49-.51-1.32,.03-1.32,.82-5.31,1.49-7.58,.05-.2,.16-.29,.36-.22,.63,.24,.92,.62,.95,1.7,.04,1.31,.12,2.9,.27,4.78,.54-2.66,1.66-5.13,2.24-7.71,.05-.21,.14-.26,.34-.17,.67,.32,.79,1.04,.69,1.77-.28,1.9-.6,4.81-.57,6.79,0,.14-.05,.16-.18,.11-.25-.09-.53-.4-.62-1.28-.08-.79,.08-2.78,.32-4.6-.78,2.19-1.52,4.58-1.8,6.54-.02,.14-.06,.2-.19,.17-.51-.15-.85-.51-1-1.31-.14-.74-.35-2.57-.41-4.39-.49,2.03-1.06,4.72-1.19,6.62Z"/><path class="cls-15" d="M105.02,104.85c.12,1.13-.2,2.65-.99,3.28-.39,.31-1.02,.48-1.73,.02-.8-.51-1-1.64-.8-2.82,.16-1,.65-1.98,1.36-2.3,.37-.16,.62-.13,.98,.11,.42,.28,.82,.23,1.06,1.13,.02,.1,.05,.19,.08,.29,.07-.03,.14-.08,.24-.11,.08-.03,.11,.03,.08,.11-.05,.13-.15,.22-.27,.28Zm-1.15,.07c-.33-.1-.78-.42-.95-.87-.23,.4-.44,.93-.52,1.49-.18,1.12,.05,2.31,.47,2.46,.44,.16,1.03-.54,1.22-1.88,.06-.41,.08-.8,.07-1.13-.1,0-.19-.03-.29-.06Zm.02-1.24c-.2-.37-.42-.21-.35,.17,.06,.35,.32,.66,.58,.77-.04-.41-.12-.73-.23-.94Z"/><path class="cls-15" d="M109.53,105.85c.49-.21,.85-1.27,.97-2.27,.02-.13,.11-.16,.19-.08,.09,.09,.22,.41,.18,.79-.09,.79-.61,1.72-1.29,1.92-.67,.2-1.14-.04-1.34-.62-.21,.63-.6,1.28-1.17,1.49-1.14,.41-1.92-1.06-1.45-2.89,.45-1.77,1.23-2.67,1.84-2.9,.5-.18,.88,.11,1.03,.56,.2-1.5,.53-3.5,.74-4.28,.06-.22,.17-.24,.29-.11,.32,.34,.47,.88,.29,1.98-.2,1.26-.64,3.71-.78,5.22-.07,.83,.1,1.33,.5,1.16Zm-2.94-1.45c-.28,1.29-.02,2.4,.46,2.24,.49-.17,.89-1.13,1.06-2.45,.21-1.61,.12-2.45-.24-2.33-.38,.12-1,1.22-1.28,2.54Z"/><path class="cls-15" d="M113.71,99.14c.05-.2,.14-.26,.27-.18,.26,.15,.55,.64,.48,1.36-.07,.65-.35,1.79-.4,2.54-.06,.8,.12,1.32,.53,1.15,.49-.21,.86-1.28,.98-2.28,.02-.13,.1-.18,.19-.08,.09,.09,.2,.4,.17,.8-.07,.79-.6,1.74-1.28,1.95-.67,.2-1.16-.06-1.37-.64-.21,.64-.59,1.29-1.18,1.51-1.14,.41-1.93-1.05-1.46-2.9,.46-1.8,1.23-2.7,1.84-2.92,.53-.19,.92,.12,1.07,.61,.05-.35,.11-.66,.17-.91Zm-.8,.86c-.4,.11-1.01,1.22-1.28,2.56-.26,1.29-.03,2.42,.45,2.26,.51-.17,.86-1.18,1.09-2.49,.28-1.62,.11-2.42-.25-2.33Z"/><path class="cls-15" d="M117.51,97.51c.41-.33,.77-.25,1.2,.17,.41,.39,.55,.92,.26,1.52-.27,.55-.65,1.1-1.34,1.61,.41,.98,1.01,1.56,1.49,1.44,.52-.13,.85-1.32,.94-2.21,.02-.17,.12-.23,.24-.1,.11,.12,.2,.43,.12,.8-.11,.62-.38,1.61-1.35,1.94-.86,.3-1.83-.13-2.41-1.79-.08-.22-.07-.26,.14-.42,1.33-1.05,1.75-2.41,1.45-2.66-.21-.17-.7,.16-1.17,.89-.66,1.03-.82,2.3-.94,4.9,0,.11-.09,.17-.21,.1-.26-.14-.46-.51-.5-1.34-.06-1.24,.5-5.99,1.05-7.87,.06-.19,.17-.24,.3-.12,.32,.3,.47,.8,.28,1.88-.11,.61-.28,1.64-.39,2.35,.25-.52,.56-.87,.83-1.09Z"/></g><path class="cls-2" d="M96.18,74.65c-1.34-7.32-5.16-13.69-10.4-17.3"/><path class="cls-2" d="M96.26,80.32c.05,.43-.03,1.85-.2,2.72-.2,1.07-.51,2.1-1.22,3.52"/><g><path class="cls-11" d="M24.52,61.63c-.04-.31-.11-.51-.22-.59-.05-.03-.13-.08-.22-.13-.07-.07-.11-.17-.11-.31,0-.25,.16-.43,.47-.55,.26-.1,.58-.15,.95-.14,.07,0,.18,0,.33,.02,.15,.01,.26,.02,.34,.02,.2,0,.54-.01,1-.04s.79-.04,.98-.04c.26,0,.46,.16,.6,.49,.11,.25,.16,.52,.16,.82,0,.19-.04,.34-.11,.47-.1,.16-.23,.23-.4,.23s-.3-.08-.41-.22c-.17-.22-.3-.36-.39-.42-.22-.16-.55-.23-.98-.23h-.2c-.06,.02-.1,.1-.13,.22-.01,.04-.02,.08-.02,.13,0,.2,.1,.36,.3,.49,.17,.11,.38,.16,.62,.16,.05,0,.11-.03,.18-.1,.07-.07,.13-.1,.17-.1,.09,0,.14,.07,.14,.2,0,.21-.03,.41-.08,.6-.08,.27-.19,.41-.34,.41-.1,0-.19-.08-.27-.22-.09-.15-.21-.23-.38-.23-.19,0-.29,.16-.29,.48,0,.75,.43,1.12,1.3,1.12,.04,0,.09,0,.17-.03s.14-.02,.18,0c.04,0,.08,0,.11,0,.15,0,.27-.07,.37-.22,.1-.14,.18-.22,.24-.22,.09,0,.17,.06,.23,.18,.07,.12,.1,.23,.1,.33,0,.06,0,.21,.02,.46,.01,.25,.02,.45,.02,.62,0,.73-.15,1.21-.45,1.42-.11,.08-.5,.12-1.14,.12h-.74c-.26,0-.51,0-.76,0h-1.69c-.31-.02-.46-.16-.46-.45,0-.11,.04-.22,.13-.31,.15-.15,.23-.24,.25-.28l.17-.27c.08-.14,.14-.48,.15-1.02l.07-2.32c.01-.2,.01-.37,0-.52Z"/><path class="cls-11" d="M30.63,64.32c.41,0,.62-.2,.62-.6,0-.13-.14-.32-.41-.55-.41-.36-.66-.59-.75-.69-.28-.31-.41-.61-.41-.92,0-.55,.22-.98,.66-1.3,.39-.28,.87-.42,1.43-.42,.18,0,.44,.03,.78,.1,.34,.07,.6,.1,.79,.1,.32,0,.49,.37,.49,1.12,0,.43-.17,.64-.5,.64-.23,0-.46-.17-.67-.52s-.42-.52-.62-.52c-.44,0-.66,.16-.66,.48,0,.19,.25,.4,.74,.63,.67,.31,1.12,.57,1.36,.79,.49,.43,.74,.97,.74,1.64,0,.73-.24,1.33-.71,1.8-.47,.47-1.07,.7-1.79,.7s-1.34-.18-1.8-.54c-.51-.39-.76-.95-.76-1.67,0-.36,.19-.54,.56-.54,.12,0,.24,.04,.37,.13,.13,.09,.31,.13,.55,.13Z"/><path class="cls-11" d="M37.74,62.61c.06,.53,.14,1.04,.24,1.55,.11,.57,.2,.91,.28,1.02,.08,.08,.16,.17,.25,.27,.09,.1,.13,.19,.13,.29,0,.49-.13,.79-.38,.91-.19,.09-.71,.13-1.54,.13-.67,0-1.11-.07-1.34-.2-.23-.13-.34-.4-.34-.78,0-.09,.06-.19,.17-.3,.14-.13,.22-.22,.23-.26,.09-.17,.19-.61,.31-1.31,.12-.67,.2-1.27,.24-1.8,.01-.14,.02-.46,.04-.98l-.13-.05c-.08,0-.15,.07-.21,.22-.08,.21-.16,.35-.22,.41-.14,.15-.34,.22-.6,.22-.22,0-.37-.07-.43-.22-.04-.09-.06-.26-.06-.52,0-.27,.08-.55,.24-.85,.18-.34,.39-.51,.62-.51,.08,0,.21,.02,.38,.06s.29,.06,.38,.06c1.01,0,1.68,0,2.03-.03,.03,0,.07-.02,.13-.05,.05-.03,.1-.04,.14-.04,.25,0,.47,.16,.65,.49,.16,.28,.23,.56,.23,.84,0,.51-.19,.76-.58,.76-.22,0-.39-.14-.53-.43-.14-.29-.28-.43-.41-.43l-.09,.04c.02,.2,.06,.58,.13,1.14l.04,.33Z"/><path class="cls-11" d="M41.52,65.76c0,.36-.12,.63-.35,.82-.21,.17-.5,.26-.86,.26-.31,0-.56-.09-.75-.28-.19-.19-.28-.44-.28-.76s.1-.63,.31-.95c.24-.35,.51-.52,.8-.52,.31,0,.58,.17,.81,.5,.21,.3,.31,.61,.31,.94Z"/><path class="cls-11" d="M24.7,70.36c0-.32,.2-.57,.58-.76,.32-.16,.66-.24,1.02-.24,.44,0,.84,.09,1.18,.26,.43,.22,.65,.53,.65,.93,0,.29-.12,.57-.36,.85-.08,.1-.32,.32-.71,.66-.28,.24-.44,.44-.49,.6,.05,.14,.18,.23,.39,.25h.49c.58,0,.89,.03,.94,.09,.08,.04,.13,.16,.13,.38,0,.07,0,.17-.02,.28-.01,.12-.02,.19-.02,.21,0,.44-.04,.83-.12,1.19-.13,.56-.33,.85-.62,.85-.17,0-.31-.08-.42-.23-.91,.08-1.43,.13-1.55,.13-.6,0-1.03-.07-1.3-.22-.37-.19-.56-.55-.56-1.09,0-.14,.14-.41,.42-.81,.18-.26,.37-.51,.56-.76,.24-.32,.48-.63,.72-.95,.3-.44,.46-.79,.46-1.06,0-.09-.03-.19-.08-.3-.05-.11-.12-.16-.21-.16-.07,0-.15,.05-.24,.15-.1,.1-.15,.16-.17,.16-.06,.01-.12,.02-.17,.02-.09,0-.19-.03-.29-.09-.1-.06-.17-.14-.19-.22-.01-.03-.02-.07-.02-.11Z"/><path class="cls-11" d="M33.57,72.87c0,.82-.2,1.49-.6,2.02-.44,.58-1.06,.87-1.85,.87-.67,0-1.21-.34-1.64-1.02-.37-.59-.55-1.24-.55-1.94,0-.77,.18-1.49,.55-2.15,.43-.8,1-1.2,1.7-1.2s1.28,.41,1.76,1.23c.42,.71,.63,1.44,.63,2.19Zm-1.8-.74c0-.32-.04-.65-.11-.96-.11-.46-.28-.69-.49-.69-.17,0-.29,.12-.38,.36-.06,.17-.09,.36-.09,.57,0,.31,.04,.59,.11,.86,.11,.38,.27,.57,.5,.57,.31,0,.46-.23,.46-.69Z"/><path class="cls-11" d="M38.4,74.87c.04,.62-.55,.93-1.76,.93-.22,0-.49-.01-.81-.04-.33-.02-.52-.04-.58-.04-.28,0-.53-.09-.75-.28-.23-.19-.32-.41-.29-.67,.02-.17,.12-.31,.29-.42,.13-.07,.26-.14,.39-.22,.17-.13,.34-.56,.5-1.29,.15-.64,.23-1.13,.23-1.46s-.03-.5-.09-.54c-.19-.05-.37-.1-.55-.15-.16-.06-.21-.17-.16-.32,.13-.36,.47-.64,1.03-.83,.42-.14,.86-.22,1.33-.22,.17,0,.32,.05,.47,.16,.14,.11,.21,.24,.21,.39,0,.16-.05,.26-.13,.3-.12,.05-.19,.1-.22,.14-.08,.13-.12,.4-.12,.8,0,1.24,.09,2.17,.28,2.81,.07,.22,.21,.38,.44,.46,.19,.08,.3,.24,.32,.48Z"/><path class="cls-11" d="M42.88,74.63s0,.07,0,.09c.01,.1,0,.2,0,.29-.04,.35-.19,.57-.46,.66-.2,.07-.68,.1-1.44,.1-.67,0-1.12-.07-1.34-.2-.22-.13-.33-.39-.33-.78,0-.09,.05-.19,.16-.3,.14-.13,.22-.22,.24-.26,.27-.44,.54-.88,.81-1.31,.52-.83,.87-1.49,1.06-1.97h-.5c-.17,0-.38,.04-.62,.1-.25,.07-.39,.1-.44,.1-.29,0-.49-.17-.59-.51-.06-.2-.09-.51-.09-.93,0-.28,.19-.41,.58-.41,.13,0,.35,.03,.67,.08,.26,.04,.54,.06,.86,.06,.14,0,.37,0,.67-.02,.3-.01,.53-.02,.68-.02,.14,0,.27,.03,.39,.08,.15,.07,.23,.17,.23,.29,0,.04-.07,.24-.2,.62-.16,.46-.28,.86-.36,1.21-.13,.55-.2,1.05-.2,1.5,0,.23,.03,.49,.09,.77,.09,.46,.14,.7,.14,.74Z"/></g></svg>